{
  "accessors": [
    {
      "bufferView": 2,
      "componentType": 5126,
      "count": 7166,
      "max": [
        0.2592323422431946,
        0.7436242699623108,
        0.02534268982708454
      ],
      "min": [
        -0.23964980244636536,
        -0.25456851720809937,
        -2.5598843097686768
      ],
      "type": "VEC3"
    },
    {
      "bufferView": 2,
      "byteOffset": 85992,
      "componentType": 5126,
      "count": 7166,
      "max": [
        0.9807876944541931,
        0.9810159802436829,
        0.9809611439704895
      ],
      "min": [
        -0.9807878136634827,
        -0.9810165762901306,
        -0.9809614419937134
      ],
      "type": "VEC3"
    },
    {
      "bufferView": 1,
      "componentType": 5126,
      "count": 7166,
      "max": [
        0.0,
        0.0
      ],
      "min": [
        0.0,
        0.0
      ],
      "type": "VEC2"
    },
    {
      "bufferView": 0,
      "componentType": 5125,
      "count": 10752,
      "type": "SCALAR"
    }
  ],
  "asset": {
    "extras": {
      "author": "Willow Lake Studio (https://sketchfab.com/WillowLakeStudio)",
      "license": "CC-BY-4.0 (http://creativecommons.org/licenses/by/4.0/)",
      "source": "https://sketchfab.com/3d-models/crowd-control-barrier-3cb00ccf0a7e4a6ba6aafcce80810fbe",
      "title": "Crowd Control Barrier"
    },
    "generator": "Sketchfab-12.68.0",
    "version": "2.0"
  },
  "bufferViews": [
    {
      "buffer": 0,
      "byteLength": 43008,
      "name": "floatBufferViews",
      "target": 34963
    },
    {
      "buffer": 0,
      "byteLength": 57328,
      "byteOffset": 43008,
      "byteStride": 8,
      "name": "floatBufferViews",
      "target": 34962
    },
    {
      "buffer": 0,
      "byteLength": 171984,
      "byteOffset": 100336,
      "byteStride": 12,
      "name": "floatBufferViews",
      "target": 34962
    }
  ],
  "buffers": [
    {
      "byteLength": 272320,
      "uri": "scene.bin"
    }
  ],
  "materials": [
    {
      "doubleSided": true,
      "name": "Metal",
      "pbrMetallicRoughness": {
        "baseColorFactor": [
          0.8,
          0.8,
          0.8,
          1.0
        ],
        "metallicFactor": 0.0,
        "roughnessFactor": 0.7960392194562886
      }
    }
  ],
  "meshes": [
    {
      "name": "Barrier_Metal_0",
      "primitives": [
        {
          "attributes": {
            "NORMAL": 1,
            "POSITION": 0,
            "TEXCOORD_0": 2
          },
          "indices": 3,
          "material": 0,
          "mode": 4
        }
      ]
    }
  ],
  "nodes": [
    {
      "children": [
        1
      ],
      "matrix": [
        1.0,
        0.0,
        0.0,
        0.0,
        0.0,
        2.220446049250313e-16,
        -1.0,
        0.0,
        0.0,
        1.0,
        2.220446049250313e-16,
        0.0,
        0.0,
        0.0,
        0.0,
        1.0
      ],
      "name": "Sketchfab_model"
    },
    {
      "children": [
        2
      ],
      "matrix": [
        0.009999999776482582,
        0.0,
        0.0,
        0.0,
        0.0,
        0.0,
        0.009999999776482582,
        0.0,
        0.0,
        -0.009999999776482582,
        0.0,
        0.0,
        0.0,
        0.0,
        0.0,
        1.0
      ],
      "name": "483acb950ac7444b949ee44368d0b607.fbx"
    },
    {
      "children": [
        3
      ],
      "name": "RootNode"
    },
    {
      "children": [
        4
      ],
      "matrix": [
        99.99999999999964,
        8.742277980456493e-06,
        3.944304526105059e-29,
        -0.0,
        -8.742277980456484e-06,
        99.99999999999956,
        4.371138828673794e-06,
        -0.0,
        -3.821371073143327e-13,
        4.371138828673776e-06,
        -99.9999999999999,
        -0.0,
        0.0,
        25.456851959228516,
        -126.3905029296875,
        1.0
      ],
      "name": "Barrier"
    },
    {
      "mesh": 0,
      "name": "Barrier_Metal_0"
    }
  ],
  "scene": 0,
  "scenes": [
    {
      "name": "Sketchfab_Scene",
      "nodes": [
        0
      ]
    }
  ]
}
